<?xml version="1.0" encoding="UTF-8"?>
<svg width="328px" height="212px" viewBox="0 0 328 212" version="1.1" xmlns="http://www.w3.org/2000/svg" xmlns:xlink="http://www.w3.org/1999/xlink">
    <!-- Generator: Sketch 59.1 (86144) - https://sketch.com -->
    <title>back</title>
    <desc>Created with Sketch.</desc>
    <g id="Page-1" stroke="none" stroke-width="1" fill="none" fill-rule="evenodd">
        <g id="back" transform="translate(164.000000, 106.000000) rotate(-180.000000) translate(-164.000000, -106.000000) " fill="#FFFFFF" fill-rule="nonzero">
            <path d="M130.342,176.956 C130.342,176.954 130.335,176.953 130.335,176.951 L56.274,105.841 L130.333,34.723 C134.333,30.885 136.533,25.761 136.533,20.297 C136.533,14.832 134.333,9.707 130.333,5.867 C122.266,-1.88 109.14,-1.878 101.086,5.869 L2.099,100.917 C0.759,102.204 0,103.982 0,105.841 C0,107.7 0.76,109.478 2.099,110.765 L101.081,205.814 C105.114,209.688 110.408,211.625 115.707,211.625 C121.006,211.625 126.3,209.688 130.335,205.814 C134.335,201.977 136.535,196.856 136.535,191.393 C136.535,185.926 134.335,180.798 130.342,176.956 Z M120.88,195.966 C118.086,198.654 113.347,198.663 110.539,195.968 L16.679,105.841 L110.546,15.71 C113.34,13.015 118.072,13.027 120.88,15.712 C122.167,16.953 122.88,18.579 122.88,20.294 C122.88,22.008 122.167,23.632 120.88,24.873 L41.694,100.917 C40.354,102.204 39.595,103.982 39.595,105.841 C39.595,107.7 40.355,109.478 41.694,110.766 L120.873,186.796 C122.167,188.04 122.88,189.67 122.88,191.387 C122.88,193.101 122.167,194.727 120.88,195.966 Z" id="Shape"></path>
            <path d="M225.908,176.951 L151.847,105.841 L225.908,34.724 C229.908,30.886 232.108,25.762 232.108,20.298 C232.108,14.833 229.908,9.708 225.908,5.868 C217.841,-1.875 204.721,-1.877 196.654,5.87 L97.674,100.919 C96.334,102.206 95.575,103.984 95.575,105.843 C95.575,107.702 96.334,109.48 97.674,110.767 L196.654,205.818 C200.687,209.689 205.981,211.624 211.28,211.624 C216.579,211.624 221.873,209.689 225.908,205.815 C229.908,201.978 232.108,196.857 232.108,191.394 C232.108,185.928 229.908,180.799 225.915,176.957 C225.915,176.954 225.908,176.952 225.908,176.951 Z M216.451,195.966 C213.652,198.659 208.906,198.657 206.105,195.968 L112.252,105.841 L206.103,15.714 C208.902,13.021 213.648,13.023 216.449,15.712 C217.736,16.953 218.449,18.579 218.449,20.294 C218.449,22.008 217.736,23.632 216.449,24.873 L137.263,100.917 C135.923,102.204 135.164,103.982 135.164,105.841 C135.164,107.7 135.923,109.478 137.263,110.766 L216.444,186.796 C217.738,188.04 218.451001,189.67 218.451001,191.387 C218.451001,193.101 217.738,194.727 216.451,195.966 Z" id="Shape"></path>
            <path d="M321.488,176.956 C321.488,176.954 321.481,176.953 321.481,176.951 L247.42,105.841 L321.481,34.724 C325.481,30.886 327.681,25.762 327.681,20.298 C327.681,14.833 325.481,9.708 321.481,5.868 C313.42,-1.873 300.288,-1.865 292.227,5.87 L193.247,100.919 C191.907,102.206 191.148,103.984 191.148,105.843 C191.148,107.702 191.907,109.48 193.247,110.767 L292.227,205.82 C296.26,209.687 301.559,211.623 306.853,211.623 C312.152,211.623 317.453,209.686 321.481,205.815 C325.481,201.978 327.681,196.857 327.681,191.394 C327.681,185.926 325.482,180.798 321.488,176.956 Z M312.025,195.966 C309.173,198.704 304.533,198.702 301.679,195.968 L207.826,105.841 L301.677,15.715 C304.529,12.978 309.169,12.978 312.023,15.712 C313.31,16.953 314.023,18.579 314.023,20.294 C314.023,22.008 313.31,23.632 312.023,24.873 L232.837,100.917 C231.497,102.204 230.738,103.982 230.738,105.841 C230.738,107.7 231.497,109.478 232.837,110.766 L312.018,186.796 C313.312,188.04 314.025,189.67 314.025,191.387 C314.025,193.101 313.312,194.727 312.025,195.966 Z" id="Shape"></path>
        </g>
    </g>
</svg>