<?xml version="1.0" encoding="UTF-8"?>
<svg width="512px" height="512px" viewBox="0 0 512 512" version="1.1" xmlns="http://www.w3.org/2000/svg" xmlns:xlink="http://www.w3.org/1999/xlink">
    <!-- Generator: Sketch 59.1 (86144) - https://sketch.com -->
    <title>battery</title>
    <desc>Created with Sketch.</desc>
    <g id="Page-1" stroke="none" stroke-width="1" fill="none" fill-rule="evenodd">
        <g id="battery" fill-rule="nonzero">
            <g id="Group" transform="translate(7.000000, 7.000000)">
                <path d="M482.5,79.813 L452.5,79.813 C460.784,79.813 467.5,86.529 467.5,94.813 L467.5,116.809 C467.5,125.094 460.784,131.809 452.5,131.809 L482.5,131.809 C490.784,131.809 497.5,125.094 497.5,116.809 L497.5,94.813 C497.5,86.528 490.784,79.813 482.5,79.813 Z" id="Path" fill="#403A40"></path>
                <path d="M482.5,497.5 L15.5,497.5 C7.216,497.5 0.5,490.784 0.5,482.5 L0.5,464.654 C0.5,456.37 7.216,449.654 15.5,449.654 L482.5,449.654 C490.784,449.654 497.5,456.37 497.5,464.654 L497.5,482.5 C497.5,490.784 490.784,497.5 482.5,497.5 Z" id="Path" fill="#060606"></path>
                <path d="M482.5,449.654 L452.5,449.654 C460.784,449.654 467.5,456.37 467.5,464.654 L467.5,482.5 C467.5,490.784 460.784,497.5 452.5,497.5 L482.5,497.5 C490.784,497.5 497.5,490.784 497.5,482.5 L497.5,464.654 C497.5,456.37 490.784,449.654 482.5,449.654 Z" id="Path" fill="#403A3F"></path>
                <path d="M268.21,219.697684 C274.124,219.65 278.068,225.076 276.087,230.191 C270.823,243.784 264.995,257.205 259.312,270.63 C258.968,271.443 259.214,271.782 259.888,272.17 C270.528,278.312 281.145,284.496 291.795,290.621 C297.042,293.638 297.877,299.778 293.499,303.931 C274.209,322.23 254.888,340.497 235.574,358.772 C232.334,361.837 229.145,362.533 225.823,360.925 C222.206,359.174 220.43,355.057 221.907,351.241 C223.922,346.034 226.13,340.9 228.274,335.744 C231.733,327.425 235.194,319.107 238.699,310.807 C239.057,309.96 238.757,309.659 238.104,309.284 C227.332,303.089 216.452,297.019 205.814,290.596 C200.862,287.606 200.277,281.51 204.498,277.51 C223.8,259.222 243.159,240.991 262.423,222.663 C264.202,220.972 266.151,219.765 268.21,219.697684 Z" id="Path" fill="#3B58FE"></path>
                <path d="M259.888,272.171 C259.215,271.782 258.968,271.443 259.312,270.631 C264.994,257.206 270.822,243.784 276.087,230.192 C278.068,225.077 274.125,219.651 268.21,219.698372 C266.151,219.766 264.202,220.973 262.425,222.663 C255.275,229.465 248.106,236.246 240.938,243.03 C240.009,245.978 234.817,256.82 231.858,264.483 C230.252,268.642 231.922,273.344 235.781,275.577 C244.451,280.595 253.112,285.628 261.796,290.621 C267.043,293.638 267.878,299.778 263.5,303.931 C251.415,315.395 239.311,326.839 227.212,338.287 C225.409,342.591 223.592,346.89 221.909,351.24 C220.432,355.056 222.208,359.173 225.825,360.924 C229.146,362.532 232.336,361.837 235.576,358.771 C254.89,340.497 274.21,322.229 293.501,303.93 C297.877,299.778 297.042,293.639 291.795,290.622 C281.145,284.497 270.528,278.314 259.888,272.171 Z" id="Path" fill="#0026FF"></path>
            </g>
            <path d="M121.5,339.308 C125.642,339.308 129,335.95 129,331.808 L129,315.308 L145.5,315.308 C149.642,315.308 153,311.95 153,307.808 C153,303.666 149.642,300.308 145.5,300.308 L129,300.308 L129,283.808 C129,279.666 125.642,276.308 121.5,276.308 C117.358,276.308 114,279.666 114,283.808 L114,300.308 L97.5,300.308 C93.358,300.308 90,303.666 90,307.808 C90,311.95 93.358,315.308 97.5,315.308 L114,315.308 L114,331.808 C114,335.95 117.358,339.308 121.5,339.308 Z M221.913,355.535 C219.044,362.95 222.33,371.178 229.556,374.676 C235.251,377.433 241.749,376.879 247.73,371.22 C266.962,353.023 286.476,334.572 305.661,316.373 C309.453,312.776 311.295,307.918 310.715,303.046 C310.128,298.118 307.146,293.771 302.534,291.12 C293.474,285.912 284.442,280.658 275.396,275.425 C280.337,263.823 285.441,251.88 290.081,239.9 C291.877,235.263 291.262,230.052 288.435,225.961 C282.693,217.651 271.676,217.169 264.256,224.23 C244.856,242.691 225.656,260.77 206.342,279.067 C202.592,282.619 200.743,287.444 201.268,292.305 C201.788,297.119 204.584,301.388 208.939,304.018 C218.143,309.576 227.418,314.808 236.612,320.062 C231.426,332.465 226.635,343.333 221.913,355.535 L221.913,355.535 Z M240.603,349.443 C244.568,339.99 248.485,330.487 252.609,320.726 C254.094,317.21 253.506,312.462 248.845,309.782 C238.14,303.628 227.326,297.591 216.693,291.176 C215.936,290.719 215.957,290.62 216.658,289.955 C237.186,270.506 273.985,235.316 275.661,234.238 C275.974,234.312 276.08,234.465 276.093,234.484 C270.851,248.002 265.026,261.437 259.406,274.707 C257.614,278.939 259.114,283.344 263.138,285.667 C273.782,291.811 284.399,298.002 295.056,304.125 C295.636,304.458 295.723,305.127 295.337,305.492 C274.926,324.843 238.101,360.265 236.22,361.233 C236.078,361.182 235.868,361.037 235.902,360.949 C237.385,357.118 239.021,353.216 240.603,349.443 L240.603,349.443 Z M414.5,315.308 C418.642,315.308 422,311.95 422,307.808 C422,303.666 418.642,300.308 414.5,300.308 L366.5,300.308 C362.358,300.308 359,303.666 359,307.808 C359,311.95 362.358,315.308 366.5,315.308 L414.5,315.308 Z M344.789,426.654 C344.789,430.796 348.147,434.154 352.289,434.154 L438.5,434.154 C445.944,434.154 452,428.098 452,420.654 L452,174.808 C452,167.364 445.944,161.308 438.5,161.308 L73.5,161.308 C66.056,161.308 60,167.364 60,174.808 L60,420.654 C60,428.098 66.056,434.154 73.5,434.154 L322.289,434.154 C326.431,434.154 329.789,430.796 329.789,426.654 C329.789,422.512 326.431,419.154 322.289,419.154 L75,419.154 L75,176.308 L437,176.308 L437,419.154 L352.289,419.154 C348.147,419.154 344.789,422.512 344.789,426.654 Z M489.5,146.308 C501.907,146.308 512,136.215 512,123.808 L512,101.812 C512,89.405 501.907,79.312 489.5,79.312 L458.706,79.312 L458.706,57.156 C458.706,47.507 450.855,39.656 441.206,39.656 L437.706,39.656 L437.706,17.5 C437.706,7.851 429.855,0 420.206,0 L378.794,0 C369.145,0 361.294,7.851 361.294,17.5 L361.294,39.656 L357.794,39.656 C348.145,39.656 340.294,47.507 340.294,57.156 L340.294,79.312 L171.706,79.312 L171.706,57.156 C171.706,47.507 163.855,39.656 154.206,39.656 L150.706,39.656 L150.706,17.5 C150.706,7.851 142.855,0 133.206,0 L91.794,0 C82.145,0 74.294,7.851 74.294,17.5 L74.294,39.656 L70.794,39.656 C61.145,39.656 53.294,47.507 53.294,57.156 L53.294,79.312 L22.5,79.312 C10.093,79.312 2.84217094e-14,89.405 2.84217094e-14,101.812 L2.84217094e-14,123.808 C2.84217094e-14,136.215 10.093,146.308 22.5,146.308 L30,146.308 L30,198.621 C30,202.763 33.358,206.121 37.5,206.121 C41.642,206.121 45,202.763 45,198.621 L45,146.308 L467,146.308 L467,449.154 L45,449.154 L45,228.621 C45,224.479 41.642,221.121 37.5,221.121 C33.358,221.121 30,224.479 30,228.621 L30,449.154 L22.5,449.154 C10.093,449.154 2.84217094e-14,459.247 2.84217094e-14,471.654 L2.84217094e-14,489.5 C2.84217094e-14,501.907 10.093,512 22.5,512 L489.5,512 C501.907,512 512,501.907 512,489.5 L512,471.654 C512,459.247 501.907,449.154 489.5,449.154 L482,449.154 L482,146.308 C482,133.901 477.093,146.308 489.5,146.308 Z M376.294,17.5 C376.294,16.122 377.416,15 378.794,15 L420.206,15 C421.584,15 422.706,16.122 422.706,17.5 L422.706,39.656 L376.294,39.656 L376.294,17.5 Z M355.294,57.156 C355.294,55.778 356.416,54.656 357.794,54.656 L441.206,54.656 C442.584,54.656 443.706,55.778 443.706,57.156 L443.706,79.312 L355.294,79.312 L355.294,57.156 Z M89.294,17.5 C89.294,16.122 90.416,15 91.794,15 L133.206,15 C134.584,15 135.706,16.122 135.706,17.5 L135.706,39.656 L89.294,39.656 L89.294,17.5 Z M68.294,57.156 C68.294,55.778 69.416,54.656 70.794,54.656 L154.206,54.656 C155.584,54.656 156.706,55.778 156.706,57.156 L156.706,79.312 L68.294,79.312 L68.294,57.156 Z M489.5,464.154 C493.636,464.154 497,467.519 497,471.654 L497,489.5 C497,493.635 493.636,497 489.5,497 L22.5,497 C18.364,497 15,493.635 15,489.5 L15,471.654 C15,467.519 18.364,464.154 22.5,464.154 L489.5,464.154 Z M22.5,131.308 C18.364,131.308 15,127.944 15,123.808 L15,101.812 C15,97.676 18.364,94.312 22.5,94.312 L489.5,94.312 C493.636,94.312 497,97.676 497,101.812 L497,123.808 C497,127.944 493.636,131.308 489.5,131.308 L22.5,131.308 Z" id="Shape" fill="#FFFFFF"></path>
        </g>
    </g>
</svg>