<?xml version="1.0" encoding="UTF-8"?>
<svg width="512px" height="512px" viewBox="0 0 512 512" version="1.1" xmlns="http://www.w3.org/2000/svg" xmlns:xlink="http://www.w3.org/1999/xlink">
    <!-- Generator: Sketch 59.1 (86144) - https://sketch.com -->
    <title>energy</title>
    <desc>Created with Sketch.</desc>
    <g id="Page-1" stroke="none" stroke-width="1" fill="none" fill-rule="evenodd">
        <g id="energy" fill-rule="nonzero">
            <g id="Group" transform="translate(72.000000, 55.000000)" fill="#0026FF">
                <path d="M187.667,119.693534 C196.455,119.623 202.315,127.685 199.371,135.286 C191.549,155.483 182.89,175.426 174.446,195.373 C173.935,196.581 174.301,197.084 175.301,197.662 C191.111,206.789 206.885,215.977 222.71,225.077 C230.506,229.56 231.748,238.683 225.242,244.854 C196.579,272.044 167.871,299.186 139.174,326.34 C134.36,330.895 129.621,331.928 124.686,329.538 C119.311,326.936 116.673,320.819 118.867,315.149 C121.861,307.412 125.141,299.784 128.328,292.122 C133.468,279.761 138.61,267.401 143.818,255.069 C144.35,253.81 143.904,253.363 142.935,252.805 C126.928,243.6 110.763,234.581 94.957,225.038 C87.599,220.595 86.729,211.538 93.002,205.594 C121.682,178.42 150.447,151.332 179.07,124.098 C181.711,121.587 184.608,119.794 187.667,119.693534 Z" id="Path"></path>
                <path d="M222.71,225.076 C206.885,215.976 191.111,206.788 175.301,197.661 C174.301,197.084 173.934,196.58 174.446,195.372 C182.889,175.425 191.549,155.482 199.371,135.286 C202.315,127.685 196.455,119.623 187.667,119.693534 C184.608,119.794 181.711,121.587 179.071,124.099 C176.063,126.961 173.042,129.808 170.032,132.667 C169.917,133.538 169.709,134.415 169.371,135.286 C164.114,148.859 155.052,172.36 149.674,186.315 C147.155,192.852 149.77,200.24 155.832,203.75 C168.121,210.865 180.401,217.998 192.711,225.076 C200.507,229.559 201.749,238.682 195.243,244.853 C169.586,269.192 143.892,293.493 118.202,317.798 C117.569,322.628 120.144,327.339 124.687,329.538 C129.622,331.927 134.361,330.894 139.175,326.34 C167.872,299.186 196.58,272.044 225.243,244.854 C231.748,238.683 230.506,229.56 222.71,225.076 L222.71,225.076 Z" id="Path"></path>
            </g>
            <path d="M454.746,343.61 C450.604,343.61 447.246,346.967 447.246,351.11 L447.246,474.5 C447.246,486.906 437.153,497 424.746,497 L37.5,497 C25.093,497 15,486.906 15,474.5 L15,85.979 C15,73.573 25.093,63.479 37.5,63.479 L201.123,63.479 C213.53,63.479 223.623,73.573 223.623,85.979 L223.623,114.304 C176.1,116.418 132.084,138.554 101.939,175.797 C99.333,179.017 99.83,183.739 103.05,186.346 C106.269,188.951 110.992,188.455 113.598,185.235 C142.463,149.574 185.299,129.122 231.123,129.122 C314.45,129.122 382.241,196.913 382.241,280.24 C382.241,363.567 314.449,431.358 231.123,431.358 C147.797,431.358 80.005,363.566 80.005,280.239 C80.005,254.848 86.421,229.74 98.559,207.628 C100.552,203.996 99.225,199.438 95.593,197.444 C91.962,195.45 87.403,196.779 85.409,200.409 C72.06,224.727 65.004,252.332 65.004,280.239 C65.004,371.837 139.524,446.357 231.122,446.357 C322.72,446.357 397.24,371.836 397.24,280.239 C397.24,191.156 326.752,118.234 238.622,114.298 L238.622,85.978 C238.622,65.3 221.8,48.478 201.122,48.478 L37.5,48.478 C16.822,48.478 0,65.3 0,85.978 L0,474.5 C0,495.178 16.822,512 37.5,512 L424.746,512 C445.424,512 462.246,495.178 462.246,474.5 L462.246,351.11 C462.246,346.968 458.888,343.61 454.746,343.61 Z M278.365,192.994 C280.597,187.23 279.831,180.754 276.318,175.67 C269.023,165.115 255.333,164.69 245.902,173.666 C217.087,201.09 188.534,227.968 159.845,255.15 C150.192,264.296 151.567,279.505 163.082,286.459 C177.661,295.262 192.327,303.499 206.927,311.857 C198.791,331.156 191.219,348.46 183.874,367.443 C180.302,376.674 184.406,386.925 193.418,391.288 C200.576,394.752 208.777,393.977 216.33,386.787 C244.868,359.618 273.88,332.355 302.405,305.295 C307.196,300.75 309.528,294.653 308.803,288.568 C308.068,282.401 304.295,276.935 298.45,273.574 C284.056,265.296 269.704,256.948 255.329,248.636 C263.079,230.416 271.099,211.757 278.365,192.994 L278.365,192.994 Z M243.551,259.156 C259.365,268.283 275.143,277.474 290.971,286.578 C294.354,288.524 294.933,291.706 292.08,294.412 C263.518,321.507 234.634,348.829 206.019,375.892 C201.378,380.282 196.03,377.587 197.862,372.856 C205.698,352.615 214.138,333.319 222.727,312.988 C224.193,309.517 224.012,304.375 218.674,301.303 C202.745,292.138 186.67,283.179 170.834,273.616 C167.719,271.735 167.541,268.521 170.161,266.038 C187.306,249.787 251.373,183.124 259.859,182.193 C262.707,181.88 265.623,184.359 264.377,187.576 C256.575,207.721 247.899,227.696 239.539,247.449 C237.599,252.035 239.174,256.63 243.551,259.156 L243.551,259.156 Z M497.73,48.479 L484.745,48.479 L484.745,7.5 C484.745,3.357 481.387,0 477.245,0 C473.103,0 469.745,3.357 469.745,7.5 L469.745,48.479 L439.745,48.479 L439.745,7.5 C439.745,3.357 436.387,0 432.245,0 C428.103,0 424.745,3.357 424.745,7.5 L424.745,48.479 L411.76,48.479 C403.892,48.479 397.49,54.88 397.49,62.749 L397.49,111.826 C397.49,140.853 419.208,164.887 447.244,168.574 L447.244,321.11 C447.244,325.253 450.602,328.61 454.744,328.61 C458.886,328.61 462.244,325.253 462.244,321.11 L462.244,168.573 C490.282,164.886 512,140.852 512,111.825 L512,62.748 C512,54.88 505.599,48.479 497.73,48.479 Z M497,111.825 C497,135.125 478.045,154.08 454.746,154.08 C431.447,154.08 412.492,135.125 412.492,111.825 L412.492,63.479 L497,63.479 L497,111.825 Z" id="Shape" fill="#FFFFFF"></path>
        </g>
    </g>
</svg>