<?xml version="1.0" encoding="utf-8"?>
<!-- Generator: Adobe Illustrator 16.0.4, SVG Export Plug-In . SVG Version: 6.00 Build 0)  -->
<!DOCTYPE svg PUBLIC "-//W3C//DTD SVG 1.1//EN" "http://www.w3.org/Graphics/SVG/1.1/DTD/svg11.dtd" [
	<!ENTITY ns_extend "http://ns.adobe.com/Extensibility/1.0/">
	<!ENTITY ns_ai "http://ns.adobe.com/AdobeIllustrator/10.0/">
	<!ENTITY ns_graphs "http://ns.adobe.com/Graphs/1.0/">
	<!ENTITY ns_vars "http://ns.adobe.com/Variables/1.0/">
	<!ENTITY ns_imrep "http://ns.adobe.com/ImageReplacement/1.0/">
	<!ENTITY ns_sfw "http://ns.adobe.com/SaveForWeb/1.0/">
	<!ENTITY ns_custom "http://ns.adobe.com/GenericCustomNamespace/1.0/">
	<!ENTITY ns_adobe_xpath "http://ns.adobe.com/XPath/1.0/">
]>
<svg version="1.1" id="Layer_1" xmlns:x="&ns_extend;" xmlns:i="&ns_ai;" xmlns:graph="&ns_graphs;"
	 xmlns="http://www.w3.org/2000/svg" xmlns:xlink="http://www.w3.org/1999/xlink" x="0px" y="0px" width="40.178px"
	 height="51.498px" viewBox="0 202.57 40.178 51.498" enable-background="new 0 202.57 40.178 51.498" xml:space="preserve">
<metadata>
	<sfw  xmlns="&ns_sfw;">
		<slices></slices>
		<sliceSourceBounds  x="-84.836" y="-86.498" height="51.498" width="39.348" bottomLeftOrigin="true"></sliceSourceBounds>
	</sfw>
</metadata>
<rect x="8.562" y="232.91" fill="#0f33ff" width="22.51" height="3.64"/>
<g>
	<path fill="#0f33ff" d="M24.639,249.062l-1-1.001c-0.069-0.068-0.161-0.106-0.258-0.106c-0.096,0-0.189,0.038-0.257,0.106
		l-2.354,2.354v-8.158c0-0.2-0.163-0.363-0.364-0.363H18.99c-0.201,0-0.364,0.163-0.364,0.363v8.187l-2.38-2.382
		c-0.142-0.143-0.372-0.143-0.514-0.001l-1.004,1.001c-0.069,0.068-0.107,0.16-0.107,0.258c0,0.097,0.039,0.189,0.107,0.257
		l4.18,4.18c0.012,0.011,0.025,0.023,0.039,0.033c0.206,0.181,0.467,0.279,0.741,0.279c0.263,0,0.517-0.094,0.719-0.265
		c0.021-0.015,0.041-0.03,0.059-0.048l4.176-4.18C24.781,249.434,24.781,249.204,24.639,249.062z"/>
	<path fill="#FFFFFF" d="M38.956,215.527c-0.11-0.148-0.287-0.314-0.569-0.421c-0.358-0.732-1.269-1.003-1.597-1.101
		c-0.266-0.078-0.531-0.115-0.822-0.115c-0.632,0-1.26,0.186-1.989,0.4c-0.918,0.271-1.184,0.325-1.572,0.384
		c-0.185,0.026-0.425,0.033-0.657,0.039c-0.236,0.006-0.464,0.014-0.674,0.041c-0.346,0.046-0.54,0.146-0.704,0.243
		c-0.063,0.037-0.114,0.065-0.273,0.116c-0.325,0.1-0.447,0.066-0.447,0.066c-0.295-0.129-0.712-0.179-1.365-0.251
		c-0.177-0.02-0.342-0.037-0.472-0.055c-0.21-0.03-0.388-0.063-0.543-0.092c-0.215-0.04-0.4-0.073-0.586-0.089
		c-0.114-0.008-0.143-0.01-0.345-0.108c-0.067-0.033-0.131-0.063-0.185-0.091c-0.198-0.102-0.405-0.205-0.708-0.295
		c-0.186-0.057-0.27-0.096-0.307-0.113c-0.329-0.328-0.725-0.375-0.961-0.383c-0.257-0.304-0.62-0.477-1.028-0.484
		c-0.004-0.003-0.008-0.006-0.013-0.01c-0.126-0.103-0.299-0.242-0.53-0.399c-0.569-0.377-1.142-0.604-1.758-0.697
		c-0.206-0.031-0.404-0.033-0.56-0.034h-0.004c-0.262-0.165-0.556-0.249-0.91-0.264l-0.072-0.001c-0.151,0-0.295,0.022-0.43,0.067
		c0-0.002-0.004-0.005-0.008-0.008c-0.03-0.025-0.059-0.059-0.097-0.094c-0.135-0.138-0.32-0.323-0.531-0.497
		c-0.051-0.042-0.194-0.196-0.291-0.299c-0.156-0.169-0.32-0.344-0.463-0.471c-0.144-0.126-0.321-0.306-0.548-0.55
		c-0.055-0.058-0.126-0.141-0.203-0.235c0.936-0.336,1.416-0.542,1.598-1.091c0.101-0.305,0.054-0.632-0.122-0.897
		c-0.051-0.074-0.119-0.162-0.189-0.262c-0.089-0.12-0.19-0.26-0.291-0.415c-0.093-0.135-0.144-0.24-0.198-0.352
		c-0.025-0.053-0.051-0.101-0.076-0.146l-0.059-0.114l-0.042-0.044c-0.025-0.051-0.055-0.115-0.088-0.179
		c-0.063-0.138-0.13-0.271-0.19-0.365c-0.076-0.13-0.4-0.778-0.45-0.908c-0.004-0.009-0.367-1.072-0.401-1.154
		c-0.092-0.232-0.307-0.834-0.438-1.229v-0.002l-1.956,0.384c0.025,0.067,0.051,0.141,0.08,0.227
		c0.144,0.437,0.375,1.083,0.472,1.331c0.038,0.1,0.354,1.024,0.371,1.074c0.088,0.263,0.526,1.117,0.631,1.296
		c0.034,0.053,0.068,0.13,0.106,0.206c0.084,0.173,0.16,0.328,0.253,0.467l0.017,0.03c0.042,0.09,0.101,0.202,0.177,0.333
		c-0.029,0.011-0.059,0.021-0.084,0.03c-0.978,0.349-1.424,0.508-1.593,1.069l-0.143,0.496l0.413,0.562
		c0.046,0.059,0.08,0.104,0.177,0.244c0.215,0.297,0.548,0.734,0.788,0.991c0.27,0.292,0.485,0.505,0.674,0.675
		c0.08,0.07,0.223,0.226,0.341,0.351c0.177,0.187,0.329,0.349,0.463,0.461c0.14,0.118,0.283,0.261,0.401,0.377
		c0.165,0.163,0.274,0.276,0.43,0.364l0.034,0.021c0.211,0.139,0.607,0.399,1.079,0.399c0.173-0.003,0.329-0.034,0.477-0.098
		c0.156,0.092,0.333,0.152,0.526,0.176c0.102,0.01,0.219,0.014,0.354,0.015c0.102,0.001,0.215,0.002,0.282,0.013
		c0.207,0.031,0.531,0.105,0.961,0.392c0.156,0.102,0.266,0.194,0.375,0.282c0.224,0.184,0.527,0.43,0.965,0.464
		c0.262,0.252,0.624,0.427,0.99,0.464c0.042,0.003,0.08,0.005,0.118,0.007c0.283,0.204,0.624,0.328,0.915,0.417
		c0.143,0.042,0.224,0.084,0.388,0.166c0.067,0.033,0.139,0.069,0.21,0.104c0.396,0.195,0.674,0.274,1.058,0.303
		c0.085,0.006,0.22,0.031,0.379,0.061c0.177,0.033,0.379,0.07,0.624,0.104c0.156,0.021,0.341,0.042,0.535,0.063
		c0.253,0.027,0.674,0.073,0.818,0.108c0.501,0.209,1.096,0.214,1.791-0.001c0.341-0.106,0.531-0.205,0.674-0.29
		c0.109-0.014,0.282-0.018,0.451-0.022c0.274-0.008,0.586-0.017,0.885-0.061c0.497-0.072,0.859-0.15,1.849-0.442
		c0.582-0.172,1.083-0.32,1.429-0.32c0.101,0,0.182,0.011,0.261,0.035c0.19,0.057,0.312,0.108,0.379,0.143
		c0.004,0.012,0.004,0.02,0.004,0.026l0.055,0.943c-0.586,0.494-1.5,1.194-2.781,2.003c-2.39,1.514-3.873,2.375-5.853,3.181
		c-1.993,0.82-3.379,1.243-4.934,1.514c-0.704,0.121-1.024,0.147-1.172,0.147c-0.021,0-0.038,0-0.063-0.005
		c-0.08-0.022-0.155-0.04-0.253-0.051c-0.228-0.023-0.493,0.003-0.876,0.052c-0.164,0.021-0.358,0.045-0.594,0.069
		c-0.211,0.021-0.451,0.037-0.683,0.052c-0.906,0.057-1.357,0.085-1.707,0.481c-0.005,0.006-0.447,0.525-0.679,1.002
		c-0.059,0.016-0.114,0.032-0.147,0.04c-0.661,0.176-2.752,0.721-3.999,1.023c-0.708,0.169-1.167,0.27-1.525,0.335
		c-0.173,0.03-0.35,0.059-0.468,0.059c-0.046,0-0.063-0.005-0.067-0.006l-0.144-0.049c-0.034-0.013-0.072-0.023-0.105-0.036
		c-0.114-0.412-0.224-0.822-0.341-1.196l-0.034-0.105c0.109-0.243,0.109-0.464,0.088-0.6c-0.029-0.212-0.123-0.407-0.266-0.561
		c-0.046-0.068-0.24-0.362-0.468-1.019c-0.324-0.923-0.552-2.023-0.552-2.687c-0.004-0.508,0.05-0.72,0.101-0.908
		c0.017-0.062,0.034-0.12,0.046-0.179c0-0.012,0.004-0.024,0.008-0.036l0.464-0.014l-0.232-1.124c0-0.002-0.025-0.183-0.008-0.617
		c0.017-0.557-0.018-0.916-0.038-1.153l-0.009-0.106c-0.021-0.302-0.177-1.147-0.228-1.353c-0.021-0.08-0.042-0.209-0.063-0.346
		c-0.055-0.327-0.097-0.556-0.152-0.724c-0.025-0.096-0.109-0.515-0.168-0.821c-0.147-0.74-0.24-1.207-0.316-1.435L8.2,211.162
		H7.492c-0.262,0-0.569,0.091-1.656,0.452c-0.072,0.024-0.152,0.051-0.232,0.077c-0.674-1.09-1.433-2.618-1.917-3.595
		c-0.32-0.645-0.48-0.963-0.59-1.143c-0.131-0.207-0.278-0.439-0.425-0.676c-0.224-0.348-0.464-0.726-0.637-1.015l-2.026,0.396
		c0.025,0.047,0.046,0.092,0.076,0.149c0.177,0.36,0.54,0.929,0.923,1.527c0.143,0.229,0.286,0.456,0.413,0.656
		c0.067,0.108,0.287,0.553,0.501,0.981c0.641,1.297,1.614,3.257,2.457,4.439l0.308,0.418h0.506h0.004
		c0.219,0,0.392-0.056,1.264-0.345c0.093-0.03,0.202-0.067,0.316-0.104c0.021,0.098,0.038,0.19,0.055,0.273
		c0.13,0.651,0.181,0.894,0.227,1.034c0.021,0.072,0.059,0.312,0.084,0.455c0.034,0.198,0.067,0.385,0.097,0.502
		c0.033,0.135,0.16,0.862,0.172,1.023l0.013,0.125c0.017,0.214,0.042,0.479,0.025,0.913c-0.004,0.147-0.004,0.276-0.004,0.39
		c-0.249,0.307-0.32,0.716-0.198,1.115c0,0.007-0.004,0.014-0.004,0.02c-0.067,0.248-0.177,0.663-0.168,1.434
		c0,0.88,0.261,2.186,0.662,3.321c0.177,0.509,0.35,0.884,0.497,1.15c-0.072,0.367,0.047,0.722,0.126,0.969l0.034,0.112
		c0.109,0.351,0.214,0.739,0.324,1.129l0.029,0.107c0.253,0.901,0.805,1.089,1.344,1.27l0.126,0.044
		c0.224,0.078,0.456,0.116,0.717,0.116c0.278,0,0.561-0.045,0.813-0.089c0.405-0.074,0.897-0.182,1.644-0.36
		c1.239-0.301,3.278-0.831,4.045-1.035c0.649-0.175,1.121-0.301,1.387-1.015l0.025-0.063c0.029-0.071,0.122-0.215,0.215-0.347
		c0.16-0.013,0.362-0.026,0.519-0.035c0.257-0.018,0.531-0.035,0.767-0.059c0.249-0.025,0.459-0.054,0.641-0.075
		c0.156-0.021,0.325-0.042,0.392-0.046c0.291,0.075,0.809,0.104,2.056-0.111c1.71-0.295,3.211-0.753,5.347-1.631
		c2.301-0.938,4.079-2.021,6.161-3.34c2.368-1.5,3.674-2.714,4.032-3.146C39.272,217.176,39.668,216.441,38.956,215.527"/>
</g>
</svg>
