<?xml version="1.0" encoding="UTF-8"?>
<svg width="512px" height="512px" viewBox="0 0 512 512" version="1.1" xmlns="http://www.w3.org/2000/svg" xmlns:xlink="http://www.w3.org/1999/xlink">
    <!-- Generator: Sketch 59.1 (86144) - https://sketch.com -->
    <title>recycle</title>
    <desc>Created with Sketch.</desc>
    <g id="Page-1" stroke="none" stroke-width="1" fill="none" fill-rule="evenodd">
        <g id="recycle" transform="translate(0.000000, -1.000000)" fill-rule="nonzero">
            <g id="Group" transform="translate(7.000000, 8.000000)">
                <path d="M272.802,161.011614 C280.128,160.953 285.014,167.674 282.559,174.011 C276.038,190.849 268.818,207.475 261.779,224.105 C261.353,225.112 261.658,225.532 262.492,226.013 C275.673,233.622 288.824,241.282 302.017,248.869 C308.517,252.607 309.552,260.212 304.128,265.357 C280.232,288.025 256.298,310.654 232.373,333.292 C228.36,337.089 224.409,337.95 220.295,335.959 C215.814,333.79 213.615,328.69 215.444,323.963 C217.94,317.512 220.675,311.153 223.331,304.765 C227.616,294.46 231.903,284.155 236.245,273.874 C236.688,272.825 236.317,272.452 235.509,271.987 C222.164,264.313 208.687,256.793 195.51,248.837 C189.375,245.133 188.65,237.582 193.88,232.627 C217.791,209.972 241.771,187.389 265.635,164.684 C267.836,162.59 270.251,161.095 272.802,161.011614 L272.802,161.011614 Z" id="Path" fill="#3B58FE"></path>
                <path d="M302.017,248.869 C288.824,241.282 275.673,233.622 262.492,226.013 C261.658,225.532 261.353,225.112 261.779,224.105 C268.818,207.475 276.038,190.849 282.559,174.011 C285.013,167.675 280.128,160.953 272.801,161.011614 C270.251,161.095 267.836,162.59 265.635,164.684 C260.645,169.431 255.637,174.159 250.639,178.898 C248.875,184.81 238.635,208.26 234.363,219.805 C233.079,223.276 234.48,227.159 237.684,229.012 C249.128,235.632 260.557,242.277 272.018,248.868 C278.518,252.605 279.552,260.211 274.129,265.356 C255.226,283.288 236.299,301.194 217.372,319.1 C216.718,320.716 216.073,322.335 215.444,323.961 C213.615,328.688 215.814,333.787 220.295,335.957 C224.409,337.949 228.36,337.088 232.373,333.29 C256.298,310.652 280.232,288.023 304.128,265.355 C309.552,260.212 308.517,252.606 302.017,248.869 L302.017,248.869 Z" id="Path" fill="#0026FF"></path>
            </g>
            <g id="Group" fill="#FFFFFF">
                <path d="M223.298,352.215 C214.402,347.908 210.358,337.778 213.889,328.652 C219.743,313.523 225.695,300.002 232.138,284.616 C220.718,278.091 209.201,271.591 197.77,264.69 C192.406,261.452 188.963,256.196 188.322,250.269 C187.676,244.285 189.954,238.343 194.572,233.968 C218.496,211.303 242.28,188.904 266.313,166.039 C275.598,157.204 289.281,158.316 296.088,168.166 C299.568,173.202 300.325,179.616 298.114,185.324 C292.353,200.198 286.03,214.991 279.884,229.423 C291.119,235.923 302.339,242.446 313.592,248.917 C319.272,252.183 322.945,257.536 323.668,263.603 C324.383,269.602 322.114,275.582 317.444,280.013 C293.699,302.539 269.487,325.43 245.681,347.956 C238.222,355.012 230.627,355.764 223.298,352.215 L223.298,352.215 Z M280.337,178.228 C278.15,179.61 232.67,223.144 207.19,247.286 C206.314,248.116 206.278,248.396 207.252,248.983 C220.424,256.929 233.825,264.408 247.083,272.034 C252.794,275.319 253.516,281.134 251.698,285.44 C244.509,302.473 237.465,318.56 231,335.273 C230.887,335.565 231.329,335.725 231.507,335.794 C233.931,334.607 279.491,290.726 304.816,266.702 C305.844,265.727 305.77,265.583 304.445,264.822 C291.246,257.232 278.092,249.57 264.906,241.958 C259.977,239.113 258.138,233.718 260.329,228.533 C267.262,212.131 274.516,195.435 281.004,178.698 C281.002,178.594 280.822,178.331 280.337,178.228 L280.337,178.228 Z" id="Shape"></path>
                <g>
                    <path d="M12.965,241.636 C6.859,241.327 2.067,236.878 1.312,230.814 C-6.212,170.375 19.657,110.356 68.83,74.315 C72.17,71.867 76.863,72.587 79.313,75.927 C81.763,79.267 81.041,83.961 77.701,86.41 C36.923,116.317 13.722,164.302 15.08,214.218 C23.765,187.431 39.031,163.283 59.76,143.726 C84.64,120.253 115.687,105.107 149.544,99.927 C152.789,99.429 156.149,100.283 158.766,102.267 C161.385,104.251 163.116,107.258 163.516,110.517 L166.611,135.73 L217.56,70.52 L152.35,19.572 L155.477,45.047 C156.289,51.651 151.771,57.605 145.192,58.6 C130.091,60.884 115.509,65.367 101.851,71.925 C98.117,73.716 93.636,72.144 91.843,68.41 C90.051,64.676 91.624,60.195 95.358,58.402 C109.548,51.589 124.64,46.815 140.26,44.196 L136.641,14.717 C136.037,9.798 138.433,5.042 142.748,2.601 C147.062,0.161 152.374,0.556 156.279,3.606 L228.992,60.416 C231.562,62.424 233.197,65.313 233.594,68.55 C233.991,71.788 233.105,74.987 231.096,77.557 L174.286,150.27 C171.233,154.176 166.176,155.842 161.399,154.519 C156.623,153.194 153.147,149.16 152.543,144.241 L148.979,115.215 C119.249,120.326 92.012,133.92 70.053,154.637 C47.831,175.602 32.502,202.35 25.723,231.988 C24.343,238.022 19.054,241.943 12.965,241.636 L12.965,241.636 Z" id="Path"></path>
                    <path d="M442.946,234.687 C440.237,234.687 437.621,233.791 435.452,232.096 L362.739,175.286 C358.833,172.233 357.166,167.175 358.49,162.399 C359.814,157.623 363.849,154.147 368.768,153.543 L397.794,149.979 C392.682,120.248 379.089,93.012 358.372,71.053 C337.407,48.831 310.659,33.502 281.021,26.723 C275.03,25.353 271.063,20.106 271.373,13.964 C271.686,7.754 276.328,3.031 282.497,2.274 C326.252,-3.1 369.669,8.635 404.754,35.311 C439.046,61.385 461.72,98.927 468.813,141.26 L498.292,137.641 C503.21,137.038 507.967,139.433 510.408,143.748 C512.849,148.062 512.454,153.373 509.403,157.279 L452.593,229.992 C450.585,232.562 447.696,234.197 444.459,234.594 C443.952,234.657 443.447,234.687 442.946,234.687 L442.946,234.687 Z M377.279,167.611 L442.49,218.56 L493.438,153.35 L467.963,156.477 C461.363,157.291 455.405,152.771 454.41,146.192 C448.429,106.64 427.569,71.503 395.675,47.252 C367.584,25.894 333.62,15.057 298.753,16.068 C325.556,24.751 349.715,40.021 369.282,60.76 C392.755,85.64 407.901,116.687 413.081,150.544 C413.578,153.788 412.725,157.149 410.741,159.766 C408.757,162.385 405.75,164.116 402.491,164.516 L377.279,167.611 Z" id="Shape"></path>
                    <path d="M363.243,512.999 C360.578,512.999 357.931,512.123 355.73,510.403 L283.017,453.593 C280.447,451.585 278.812,448.696 278.415,445.459 C278.018,442.221 278.904,439.022 280.913,436.452 L337.723,363.739 C340.776,359.833 345.831,358.166 350.61,359.49 C355.386,360.815 358.862,364.849 359.466,369.768 L363.03,398.794 C392.76,393.683 419.997,380.089 441.956,359.372 C464.178,338.407 479.507,311.659 486.286,282.021 C487.656,276.03 492.888,272.058 499.045,272.373 C505.151,272.682 509.943,277.131 510.698,283.195 C514.324,312.324 510.276,341.98 498.985,368.9 C488.073,394.915 470.642,417.967 448.575,435.567 C445.336,438.149 440.618,437.618 438.035,434.379 C435.452,431.141 435.984,426.422 439.223,423.839 C459.329,407.804 475.211,386.8 485.152,363.098 C493.534,343.114 497.534,321.478 496.933,299.783 C488.249,326.574 472.983,350.722 452.251,370.282 C427.371,393.755 396.324,408.901 362.467,414.081 C359.223,414.578 355.862,413.725 353.245,411.741 C350.626,409.757 348.895,406.75 348.495,403.491 L345.4,378.278 L294.451,443.489 L359.661,494.437 L356.534,468.962 C355.722,462.358 360.24,456.404 366.819,455.409 C384.258,452.771 400.919,447.231 416.339,438.942 C419.989,436.981 424.535,438.349 426.496,441.997 C428.457,445.645 427.09,450.193 423.441,452.154 C407.297,460.833 389.919,466.767 371.75,469.812 L375.369,499.291 C375.973,504.21 373.577,508.966 369.262,511.407 C367.379,512.474 365.306,512.999 363.243,512.999 L363.243,512.999 Z" id="Path"></path>
                    <path d="M76.557,281.913 L149.27,338.723 C153.176,341.776 154.843,346.834 153.519,351.61 C152.195,356.386 148.16,359.862 143.241,360.466 L114.215,364.03 C119.327,393.761 132.92,420.997 153.637,442.956 C174.602,465.178 201.35,480.507 230.988,487.286 C236.979,488.656 240.946,493.903 240.636,500.045 C240.323,506.254 235.683,510.978 229.512,511.735 C222.573,512.587 215.637,513.009 208.749,513.009 C172.192,513.009 136.777,501.144 107.255,478.698 C72.963,452.624 50.289,415.082 43.196,372.749 L13.717,376.368 C8.802,376.976 4.042,374.576 1.601,370.261 C-0.84,365.947 -0.445,360.636 2.606,356.73 L59.416,284.017 C61.424,281.447 64.313,279.812 67.55,279.415 C70.793,279.018 73.987,279.904 76.557,281.913 Z M69.52,295.45 L18.572,360.66 L44.047,357.533 C44.561,357.469 45.073,357.438 45.578,357.438 C51.55,357.438 56.682,361.751 57.599,367.817 C63.58,407.369 84.44,442.506 116.334,466.757 C144.425,488.115 178.384,498.951 213.256,497.941 C186.453,489.258 162.294,473.988 142.727,453.249 C119.254,428.369 104.108,397.322 98.928,363.465 C98.431,360.221 99.284,356.86 101.268,354.243 C103.252,351.624 106.259,349.893 109.518,349.493 L134.731,346.398 L69.52,295.45 Z" id="Shape"></path>
                </g>
            </g>
        </g>
    </g>
</svg>